<?xml version="1.0" encoding="UTF-8" standalone="no"?>
<svg
   width="1366"
   height="74.081093"
   viewBox="0 0 1366 74.081093"
   fill="none"
   version="1.1"
   id="svg3"
   sodipodi:docname="black.svg"
   inkscape:version="1.3 (0e150ed6c4, 2023-07-21)"
   xmlns:inkscape="http://www.inkscape.org/namespaces/inkscape"
   xmlns:sodipodi="http://sodipodi.sourceforge.net/DTD/sodipodi-0.dtd"
   xmlns="http://www.w3.org/2000/svg"
   xmlns:svg="http://www.w3.org/2000/svg">
  <defs
     id="defs3" />
  <sodipodi:namedview
     id="namedview3"
     pagecolor="#505050"
     bordercolor="#ffffff"
     borderopacity="1"
     inkscape:showpageshadow="0"
     inkscape:pageopacity="0"
     inkscape:pagecheckerboard="1"
     inkscape:deskcolor="#505050"
     inkscape:zoom="1.2247545"
     inkscape:cx="410.69455"
     inkscape:cy="245.35529"
     inkscape:window-width="3440"
     inkscape:window-height="1310"
     inkscape:window-x="-9"
     inkscape:window-y="-9"
     inkscape:window-maximized="1"
     inkscape:current-layer="svg3" />
  <path
     d="m 1366,37.625092 c -38.64,1.5848 -82.78,2.5215 -134.91,2.5215 C 889.586,40.146592 889.586,0 548.086,0 258.718,0 214.505,28.813992 0,37.610992 v 36.4701 h 1366 z"
     fill="#000000"
     fill-opacity="0.3"
     id="path1" />
  <path
     d="m 1366,56.958892 c -46.38,4.0076 -100.91,6.515 -169.06,6.515 -341.504,0 -341.504,-62.854088 -683.004,-62.854088 -273.339,0 -327.925,40.259288 -513.936,56.346088 v 17.1152 h 1366 z"
     fill="#000000"
     fill-opacity="0.5"
     id="path2" />
  <path
     d="m 1366,74.081092 v -2.3948 c -30.09,1.2678 -63.39,1.9792 -100.76,1.9792 -341.504,0 -341.504,-59.3747 -683.004,-59.3747 -304.148,0 -337.413,47.0842 -582.236,57.3955 v 2.3948 z"
     fill="#000000"
     id="path3" />
</svg>
