<svg xmlns:xlink="http://www.w3.org/1999/xlink" xmlns="http://www.w3.org/2000/svg" width="1600" height="1000" viewBox="0 0 1600 1000" preserveAspectRatio="xMidYMid meet" style="width: 100%; height: 100%;"><defs><clipPath id="animationMask_GLQATuqYks"><rect width="1600" height="1000" x="0" y="0"></rect></clipPath><clipPath id="cp_Z84bicCy"><path d="M0,0 L1600,0 L1600,1000 L0,1000z"></path></clipPath><clipPath id="cp_UwJtkyXG"><path d="M0,0 L1600,0 L1600,1000 L0,1000z"></path></clipPath><clipPath id="cp_ZXicC2wH"><path d="M0,0 L1600,0 L1600,1000 L0,1000z"></path></clipPath><clipPath id="cp_J3dJYj2F"><path d="M0,0 L1600,0 L1600,1000 L0,1000z"></path></clipPath><clipPath id="cp_IyZVEFwp"><path d="M0,0 L1600,0 L1600,1000 L0,1000z"></path></clipPath><clipPath id="cp_gu8FUoaR"><path d="M0,0 L1600,0 L1600,1000 L0,1000z"></path></clipPath><clipPath id="cp_ASRkBadv"><path d="M0,0 L1600,0 L1600,1000 L0,1000z"></path></clipPath><clipPath id="cp_7Zhu1OGi"><path d="M0,0 L1600,0 L1600,1000 L0,1000z"></path></clipPath><clipPath id="cp_iCAjfuAh"><path d="M0,0 L1600,0 L1600,1000 L0,1000z"></path></clipPath><clipPath id="cp_sDixsCrI"><path d="M0,0 L1600,0 L1600,1000 L0,1000z"></path></clipPath><clipPath id="cp_uprjWnph"><path d="M0,0 L1600,0 L1600,1000 L0,1000z"></path></clipPath><clipPath id="cp_suQeqgM8"><path d="M0,0 L1600,0 L1600,1000 L0,1000z"></path></clipPath><clipPath id="cp_QZBAzlgE"><path d="M0,0 L1600,0 L1600,1000 L0,1000z"></path></clipPath><clipPath id="cp_ZWXqqCPH"><path d="M0,0 L1600,0 L1600,1000 L0,1000z"></path></clipPath><clipPath id="cp_Fo4KMqH5"><path d="M0,0 L1600,0 L1600,1000 L0,1000z"></path></clipPath><clipPath id="cp_kNFXRzg2"><path d="M0,0 L1600,0 L1600,1000 L0,1000z"></path></clipPath><clipPath id="cp_YwhgYWke"><path d="M0,0 L1600,0 L1600,1000 L0,1000z"></path></clipPath><clipPath id="cp_0bq4dhPX"><path d="M0,0 L1600,0 L1600,1000 L0,1000z"></path></clipPath><clipPath id="cp_BcVHC7sb"><path d="M0,0 L1600,0 L1600,1000 L0,1000z"></path></clipPath><clipPath id="cp_gBkYu7jY"><path d="M0,0 L1600,0 L1600,1000 L0,1000z"></path></clipPath><clipPath id="cp_RnI9nL0P"><path d="M0,0 L1600,0 L1600,1000 L0,1000z"></path></clipPath><clipPath id="cp_HUbFFUrR"><path d="M0,0 L1600,0 L1600,1000 L0,1000z"></path></clipPath><clipPath id="cp_x4jfDq2y"><path d="M0,0 L1600,0 L1600,1000 L0,1000z"></path></clipPath></defs><g clip-path="url(#animationMask_GLQATuqYks)"><g clip-path="url(#cp_x4jfDq2y)" style="display: none;" transform="matrix(-0.7071067811865477,-0.7071067811865475,0.7071067811865475,-0.7071067811865477,1136.1320343559644,1311.2388155425117)" opacity="1"><g style="user-select: none; display: none;" transform="matrix(1,0,0,1,808,474)" opacity="1"><g opacity="1" transform="matrix(1,0,0,1,0,0)"><path style="display: none;" fill="rgb(0,0,0)" fill-opacity="1" d="M0 0"></path><path stroke-linecap="round" stroke-linejoin="round" fill-opacity="0" style="display: none;" stroke="#57B15E" stroke-opacity="1" stroke-width="20px" d="M0 0"></path></g></g></g><g clip-path="url(#cp_HUbFFUrR)" style="display: none;" transform="matrix(-0.7071067811865475,0.7071067811865476,-0.7071067811865476,-0.7071067811865475,1595.2388155425117,179.86796564403568)" opacity="1"><g style="user-select: none; display: none;" transform="matrix(1,0,0,1,808,474)" opacity="1"><g opacity="1" transform="matrix(1,0,0,1,0,0)"><path style="display: none;" fill="rgb(0,0,0)" fill-opacity="1" d="M0 0"></path><path stroke-linecap="round" stroke-linejoin="round" fill-opacity="0" style="display: none;" stroke="#57B15E" stroke-opacity="1" stroke-width="20px" d="M0 0"></path></g></g></g><g clip-path="url(#cp_RnI9nL0P)" style="display: none;" transform="matrix(0.7071067811865476,-0.7071067811865475,0.7071067811865475,0.7071067811865476,4.761184457488298,860.1320343559642)" opacity="1"><g style="user-select: none; display: none;" transform="matrix(1,0,0,1,808,474)" opacity="1"><g opacity="1" transform="matrix(1,0,0,1,0,0)"><path style="display: none;" fill="rgb(0,0,0)" fill-opacity="1" d="M0 0"></path><path stroke-linecap="round" stroke-linejoin="round" fill-opacity="0" style="display: none;" stroke="#57B15E" stroke-opacity="1" stroke-width="20px" d="M0 0"></path></g></g></g><g clip-path="url(#cp_gBkYu7jY)" style="display: none;" transform="matrix(0.7071067811865476,0.7071067811865475,-0.7071067811865475,0.7071067811865476,463.8679656440357,-275.2388155425117)" opacity="1"><g style="user-select: none; display: none;" transform="matrix(1,0,0,1,808,474)" opacity="1"><g opacity="1" transform="matrix(1,0,0,1,0,0)"><path style="display: none;" fill="rgb(0,0,0)" fill-opacity="1" d="M0 0"></path><path stroke-linecap="round" stroke-linejoin="round" fill-opacity="0" style="display: none;" stroke="#57B15E" stroke-opacity="1" stroke-width="20px" d="M0 0"></path></g></g></g><g clip-path="url(#cp_BcVHC7sb)" style="display: block;" transform="matrix(6.123233995736766e-17,1,-1,6.123233995736766e-17,616,-328)" opacity="1"><g style="user-select: none; display: block;" transform="matrix(1,0,0,1,808,474)" opacity="1"><g opacity="1" transform="matrix(1,0,0,1,0,0)"><path style="display: block;" fill="rgb(0,0,0)" fill-opacity="1" d="M0 0"></path><path stroke-linecap="round" stroke-linejoin="round" fill-opacity="0" style="display: block;" stroke="#57B15E" stroke-opacity="1" stroke-width="20px" d="M0 0"></path></g></g></g><g clip-path="url(#cp_0bq4dhPX)" style="display: block;" transform="matrix(-1.8369701987210297e-16,-1,1,-1.8369701987210297e-16,1008.0000000000002,1272)" opacity="1"><g style="user-select: none; display: block;" transform="matrix(1,0,0,1,808,474)" opacity="1"><g opacity="1" transform="matrix(1,0,0,1,0,0)"><path style="display: block;" fill="rgb(0,0,0)" fill-opacity="1" d="M0 0"></path><path stroke-linecap="round" stroke-linejoin="round" fill-opacity="0" style="display: block;" stroke="#57B15E" stroke-opacity="1" stroke-width="20px" d="M0 0"></path></g></g></g><g clip-path="url(#cp_YwhgYWke)" style="display: block;" transform="matrix(-0.7071067811865475,0.7071067811865476,-0.7071067811865476,-0.7071067811865475,1107.2388155425117,103.86796564403568)" opacity="1"><g style="user-select: none; display: block;" transform="matrix(1,0,0,1,808,474)" opacity="1"><g opacity="1" transform="matrix(1,0,0,1,0,0)"><path style="display: block;" fill="rgb(0,0,0)" fill-opacity="1" d="M0 0"></path><path stroke-linecap="round" stroke-linejoin="round" fill-opacity="0" style="display: block;" stroke="#57B15E" stroke-opacity="1" stroke-width="20px" d="M0 0"></path></g></g></g><g clip-path="url(#cp_kNFXRzg2)" style="display: block;" transform="matrix(-0.7071067811865475,-0.7071067811865476,0.7071067811865476,-0.7071067811865475,1640.1320343559642,1235.2388155425117)" opacity="1"><g style="user-select: none; display: block;" transform="matrix(1,0,0,1,808,474)" opacity="1"><g opacity="1" transform="matrix(1,0,0,1,0,0)"><path style="display: block;" fill="rgb(0,0,0)" fill-opacity="1" d="M0 0"></path><path stroke-linecap="round" stroke-linejoin="round" fill-opacity="0" style="display: block;" stroke="#57B15E" stroke-opacity="1" stroke-width="20px" d="M0 0"></path></g></g></g><g clip-path="url(#cp_Fo4KMqH5)" style="display: block;" transform="matrix(0.7071067811865476,0.7071067811865475,-0.7071067811865475,0.7071067811865476,-24.132034355964322,-291.2388155425117)" opacity="1"><g style="user-select: none; display: block;" transform="matrix(1,0,0,1,808,474)" opacity="1"><g opacity="1" transform="matrix(1,0,0,1,0,0)"><path style="display: block;" fill="rgb(0,0,0)" fill-opacity="1" d="M0 0"></path><path stroke-linecap="round" stroke-linejoin="round" fill-opacity="0" style="display: block;" stroke="#57B15E" stroke-opacity="1" stroke-width="20px" d="M0 0"></path></g></g></g><g clip-path="url(#cp_ZWXqqCPH)" style="display: block;" transform="matrix(-0.7071067811865476,0.7071067811865475,0.7071067811865475,0.7071067811865476,1640.1320343559644,-291.2388155425117)" opacity="1"><g style="user-select: none; display: block;" transform="matrix(1,0,0,1,808,474)" opacity="1"><g opacity="1" transform="matrix(1,0,0,1,0,0)"><path style="display: block;" fill="rgb(0,0,0)" fill-opacity="1" d="M0 0"></path><path stroke-linecap="round" stroke-linejoin="round" fill-opacity="0" style="display: block;" stroke="#57B15E" stroke-opacity="1" stroke-width="20px" d="M0 0"></path></g></g></g><g clip-path="url(#cp_QZBAzlgE)" style="display: none;" transform="matrix(-0.39073112848927377,0.9205048534524403,0.9205048534524403,0.39073112848927377,938.332476065199,-209.76944700658908)" opacity="1"><g style="user-select: none; display: none;" transform="matrix(1,0,0,1,808,474)" opacity="1"><g opacity="1" transform="matrix(1,0,0,1,0,0)"><path style="display: none;" fill="rgb(0,0,0)" fill-opacity="1" d="M0 0"></path><path stroke-linecap="round" stroke-linejoin="round" fill-opacity="0" style="display: none;" stroke="#57B15E" stroke-opacity="1" stroke-width="20px" d="M0 0"></path></g></g></g><g clip-path="url(#cp_suQeqgM8)" style="display: none;" transform="matrix(-0.39073112848927377,-0.9205048534524403,-0.9205048534524403,0.39073112848927377,1298.837329517639,1263.0383185173155)" opacity="1"><g style="user-select: none; display: none;" transform="matrix(1,0,0,1,808,474)" opacity="1"><g opacity="1" transform="matrix(1,0,0,1,0,0)"><path style="display: none;" fill="rgb(0,0,0)" fill-opacity="1" d="M0 0"></path><path stroke-linecap="round" stroke-linejoin="round" fill-opacity="0" style="display: none;" stroke="#57B15E" stroke-opacity="1" stroke-width="20px" d="M0 0"></path></g></g></g><g clip-path="url(#cp_uprjWnph)" style="display: none;" transform="matrix(0.7071067811865476,-0.7071067811865475,-0.7071067811865475,-0.7071067811865476,353.8679656440357,1081.2388155425117)" opacity="1"><g style="user-select: none; display: none;" transform="matrix(1,0,0,1,808,474)" opacity="1"><g opacity="1" transform="matrix(1,0,0,1,0,0)"><path style="display: none;" fill="rgb(0,0,0)" fill-opacity="1" d="M0 0"></path><path stroke-linecap="round" stroke-linejoin="round" fill-opacity="0" style="display: none;" stroke="#57B15E" stroke-opacity="1" stroke-width="20px" d="M0 0"></path></g></g></g><g clip-path="url(#cp_sDixsCrI)" style="display: none;" transform="matrix(0.7071067811865476,0.7071067811865475,0.7071067811865475,-0.7071067811865476,126.7611844574883,-50.13203435596415)" opacity="1"><g style="user-select: none; display: none;" transform="matrix(1,0,0,1,808,474)" opacity="1"><g opacity="1" transform="matrix(1,0,0,1,0,0)"><path style="display: none;" fill="rgb(0,0,0)" fill-opacity="1" d="M0 0"></path><path stroke-linecap="round" stroke-linejoin="round" fill-opacity="0" style="display: none;" stroke="#57B15E" stroke-opacity="1" stroke-width="20px" d="M0 0"></path></g></g></g><g clip-path="url(#cp_iCAjfuAh)" style="display: none;" transform="matrix(1,0,0,-1,6,542)" opacity="1"><g style="user-select: none; display: none;" transform="matrix(1,0,0,1,808,474)" opacity="1"><g opacity="1" transform="matrix(1,0,0,1,0,0)"><path style="display: none;" fill="rgb(0,0,0)" fill-opacity="1" d="M0 0"></path><path stroke-linecap="round" stroke-linejoin="round" fill-opacity="0" style="display: none;" stroke="#57B15E" stroke-opacity="1" stroke-width="20px" d="M0 0"></path></g></g></g><g style="user-select: none; display: block;" transform="matrix(1,0,0,1,809.837,590.909)" opacity="1"><g opacity="1" transform="matrix(1,0,0,1,20,115.991)"><path style="display: block;" fill="#57B15E" fill-opacity="0" d="M0 0 M-0.661,-233.226 C22.807,-214.109 57.72,-217.469 77.152,-240.677 C80.882,-245.132 83.797,-250.00199999999998 85.911,-255.106 C85.911,-255.106 113.116,-320.081 113.116,-320.081 C125.494,-349.644 92.681,-377.70099999999996 65.399,-360.881 C65.399,-360.881 5.439,-323.913 5.439,-323.913 C0.5670000000000002,-320.935 -3.926,-317.151 -7.838,-312.576 C-28.11,-288.86800000000005 -24.984,-253.04 -0.661,-233.226zM0 0 M-2.385,-235.307 C20.226,-255.25199999999998 22.615000000000002,-290.107 2.977,-312.985 C-0.7920000000000003,-317.37600000000003 -5.102999999999999,-321.034 -9.774,-323.943 C-9.774,-323.943 -69.186,-361.268 -69.186,-361.268 C-96.21900000000001,-378.25 -129.137,-350.579 -117.056,-321.029 C-117.056,-321.029 -90.504,-256.084 -90.504,-256.084 C-88.372,-250.811 -85.38600000000001,-245.78 -81.528,-241.19 C-61.536,-217.406 -25.819000000000003,-214.636 -2.385,-235.307zM0 0 M-0.021,-221.915 C38.768,-222.84 69.98299999999999,-255.19799999999998 69.582,-293.996 C69.505,-301.443 68.287,-308.615 66.095,-315.349 C66.095,-315.349 38.474,-401.314 38.474,-401.314 C25.906,-440.428 -29.434000000000005,-440.428 -42.002,-401.314 C-42.002,-401.314 -69.623,-315.349 -69.623,-315.349 C-71.88900000000001,-308.389 -73.114,-300.96000000000004 -73.114,-293.244 C-73.114,-253.25900000000001 -40.223,-220.957 -0.021,-221.915z"></path><path stroke-linecap="round" stroke-linejoin="round" fill-opacity="0" style="display: block;" stroke="#57B15E" stroke-opacity="0" stroke-width="20px" d="M0 0 M-0.661,-233.226 C22.807,-214.109 57.72,-217.469 77.152,-240.677 C80.882,-245.132 83.797,-250.00199999999998 85.911,-255.106 C85.911,-255.106 113.116,-320.081 113.116,-320.081 C125.494,-349.644 92.681,-377.70099999999996 65.399,-360.881 C65.399,-360.881 5.439,-323.913 5.439,-323.913 C0.5670000000000002,-320.935 -3.926,-317.151 -7.838,-312.576 C-28.11,-288.86800000000005 -24.984,-253.04 -0.661,-233.226zM0 0 M-2.385,-235.307 C20.226,-255.25199999999998 22.615000000000002,-290.107 2.977,-312.985 C-0.7920000000000003,-317.37600000000003 -5.102999999999999,-321.034 -9.774,-323.943 C-9.774,-323.943 -69.186,-361.268 -69.186,-361.268 C-96.21900000000001,-378.25 -129.137,-350.579 -117.056,-321.029 C-117.056,-321.029 -90.504,-256.084 -90.504,-256.084 C-88.372,-250.811 -85.38600000000001,-245.78 -81.528,-241.19 C-61.536,-217.406 -25.819000000000003,-214.636 -2.385,-235.307zM0 0 M-0.021,-221.915 C38.768,-222.84 69.98299999999999,-255.19799999999998 69.582,-293.996 C69.505,-301.443 68.287,-308.615 66.095,-315.349 C66.095,-315.349 38.474,-401.314 38.474,-401.314 C25.906,-440.428 -29.434000000000005,-440.428 -42.002,-401.314 C-42.002,-401.314 -69.623,-315.349 -69.623,-315.349 C-71.88900000000001,-308.389 -73.114,-300.96000000000004 -73.114,-293.244 C-73.114,-253.25900000000001 -40.223,-220.957 -0.021,-221.915z"></path></g></g><g style="user-select: none; display: block;" transform="matrix(1,0,0,1,829.837,610.909)" opacity="1"><g opacity="1" transform="matrix(1,0,0,1,0,95.991)"><path style="display: block;" fill="#FABA3A" fill-opacity="0" d="M0 0 M0,-210.117 C-54.355,-210.117 -98.419,-166.053 -98.419,-111.698 C-98.419,-101.05499999999999 -96.729,-90.806 -93.604,-81.206 C-93.604,-81.206 0,210.117 0,210.117 C0,210.117 93.604,-81.206 93.604,-81.206 C96.729,-90.806 98.419,-101.05499999999999 98.419,-111.698 C98.419,-166.053 54.355,-210.117 0,-210.117z"></path><path stroke-linecap="round" stroke-linejoin="round" fill-opacity="0" style="display: block;" stroke="#000000" stroke-opacity="0" stroke-width="20px" d="M0 0 M0,-210.117 C-54.355,-210.117 -98.419,-166.053 -98.419,-111.698 C-98.419,-101.05499999999999 -96.729,-90.806 -93.604,-81.206 C-93.604,-81.206 0,210.117 0,210.117 C0,210.117 93.604,-81.206 93.604,-81.206 C96.729,-90.806 98.419,-101.05499999999999 98.419,-111.698 C98.419,-166.053 54.355,-210.117 0,-210.117z"></path></g></g><g style="user-select: none; display: block;" transform="matrix(1,0,0,1,809.837,590.909)" opacity="1"><g opacity="1" transform="matrix(1,0,0,1,0,95.991)"><path style="display: block;" fill="#FF8B00" fill-opacity="0" d="M0 0 M-0.661,-233.226 C22.807,-214.109 57.72,-217.469 77.152,-240.677 C80.882,-245.132 83.797,-250.00199999999998 85.911,-255.106 C85.911,-255.106 113.116,-320.081 113.116,-320.081 C125.494,-349.644 92.681,-377.70099999999996 65.399,-360.881 C65.399,-360.881 5.439,-323.913 5.439,-323.913 C0.5670000000000002,-320.935 -3.926,-317.151 -7.838,-312.576 C-28.11,-288.86800000000005 -24.984,-253.04 -0.661,-233.226zM0 0 M-2.385,-235.307 C20.226,-255.25199999999998 22.615000000000002,-290.107 2.977,-312.985 C-0.7920000000000003,-317.37600000000003 -5.102999999999999,-321.034 -9.774,-323.943 C-9.774,-323.943 -69.186,-361.268 -69.186,-361.268 C-96.21900000000001,-378.25 -129.137,-350.579 -117.056,-321.029 C-117.056,-321.029 -90.504,-256.084 -90.504,-256.084 C-88.372,-250.811 -85.38600000000001,-245.78 -81.528,-241.19 C-61.536,-217.406 -25.819000000000003,-214.636 -2.385,-235.307zM0 0 M-0.021,-221.915 C38.768,-222.84 69.98299999999999,-255.19799999999998 69.582,-293.996 C69.505,-301.443 68.287,-308.615 66.095,-315.349 C66.095,-315.349 38.474,-401.314 38.474,-401.314 C25.906,-440.428 -29.434000000000005,-440.428 -42.002,-401.314 C-42.002,-401.314 -69.623,-315.349 -69.623,-315.349 C-71.88900000000001,-308.389 -73.114,-300.96000000000004 -73.114,-293.244 C-73.114,-253.25900000000001 -40.223,-220.957 -0.021,-221.915zM0 0 M80.163,-48.9 C80.163,-48.9 -17.837,-48.9 -17.837,-48.9M0 0 M-47.837,51.1 C-47.837,51.1 4.163,51.1 4.163,51.1M0 0 M0,-210.117 C-54.355,-210.117 -98.419,-166.053 -98.419,-111.698 C-98.419,-101.05499999999999 -96.729,-90.806 -93.604,-81.206 C-93.604,-81.206 0,210.117 0,210.117 C0,210.117 93.604,-81.206 93.604,-81.206 C96.729,-90.806 98.419,-101.05499999999999 98.419,-111.698 C98.419,-166.053 54.355,-210.117 0,-210.117z"></path><path stroke-linecap="round" stroke-linejoin="round" fill-opacity="0" style="display: block;" stroke="#000000" stroke-opacity="1" stroke-width="20px" d="M0 0 M-0.661,-233.226 C22.807,-214.109 57.72,-217.469 77.152,-240.677 C80.882,-245.132 83.797,-250.00199999999998 85.911,-255.106 C85.911,-255.106 113.116,-320.081 113.116,-320.081 C125.494,-349.644 92.681,-377.70099999999996 65.399,-360.881 C65.399,-360.881 5.439,-323.913 5.439,-323.913 C0.5670000000000002,-320.935 -3.926,-317.151 -7.838,-312.576 C-28.11,-288.86800000000005 -24.984,-253.04 -0.661,-233.226zM0 0 M-2.385,-235.307 C20.226,-255.25199999999998 22.615000000000002,-290.107 2.977,-312.985 C-0.7920000000000003,-317.37600000000003 -5.102999999999999,-321.034 -9.774,-323.943 C-9.774,-323.943 -69.186,-361.268 -69.186,-361.268 C-96.21900000000001,-378.25 -129.137,-350.579 -117.056,-321.029 C-117.056,-321.029 -90.504,-256.084 -90.504,-256.084 C-88.372,-250.811 -85.38600000000001,-245.78 -81.528,-241.19 C-61.536,-217.406 -25.819000000000003,-214.636 -2.385,-235.307zM0 0 M-0.021,-221.915 C38.768,-222.84 69.98299999999999,-255.19799999999998 69.582,-293.996 C69.505,-301.443 68.287,-308.615 66.095,-315.349 C66.095,-315.349 38.474,-401.314 38.474,-401.314 C25.906,-440.428 -29.434000000000005,-440.428 -42.002,-401.314 C-42.002,-401.314 -69.623,-315.349 -69.623,-315.349 C-71.88900000000001,-308.389 -73.114,-300.96000000000004 -73.114,-293.244 C-73.114,-253.25900000000001 -40.223,-220.957 -0.021,-221.915zM0 0 M80.163,-48.9 C80.163,-48.9 -17.837,-48.9 -17.837,-48.9M0 0 M-47.837,51.1 C-47.837,51.1 4.163,51.1 4.163,51.1M0 0 M0,-210.117 C-54.355,-210.117 -98.419,-166.053 -98.419,-111.698 C-98.419,-101.05499999999999 -96.729,-90.806 -93.604,-81.206 C-93.604,-81.206 0,210.117 0,210.117 C0,210.117 93.604,-81.206 93.604,-81.206 C96.729,-90.806 98.419,-101.05499999999999 98.419,-111.698 C98.419,-166.053 54.355,-210.117 0,-210.117z"></path></g></g><g transform="matrix(1,0,0,1,802,460)" opacity="1" style="user-select: none;"><g opacity="1" transform="matrix(1,0,0,1,-33.631,108.749)"><path fill="#57B15E" fill-opacity="1" d="M0 0 M-125.091,-92.987 C-16.957,-92.987 100.221,-92.987 208.355,-92.987"></path><path stroke-linecap="round" stroke-linejoin="miter" fill-opacity="0" stroke-miterlimit="4" stroke="#000000" stroke-opacity="1" stroke-width="20px" d="M0 0 M-125.091,-92.987 C-16.957,-92.987 100.221,-92.987 208.355,-92.987"></path></g></g><g clip-path="url(#cp_UwJtkyXG)" style="display: block;" transform="matrix(1,0,0,1,0,0)" opacity="1"><g clip-path="url(#cp_7Zhu1OGi)" style="display: block;" transform="matrix(1,0,0,1,320,-26)" opacity="1"><g style="user-select: none; display: block;" transform="matrix(1,0,0,1,800,500)" opacity="1"><g opacity="1" transform="matrix(1,0,0,1,442,30)"><path style="display: block;" fill="rgb(0,0,0)" fill-opacity="1" d="M0 0"></path><path stroke-linecap="round" stroke-linejoin="round" fill-opacity="0" style="display: block;" stroke="#81C0D3" stroke-opacity="1" stroke-width="20px" d="M0 0"></path></g></g></g><g clip-path="url(#cp_ASRkBadv)" style="display: block;" transform="matrix(1,0,0,1,160,-26)" opacity="1"><g style="user-select: none; display: block;" transform="matrix(1,0,0,1,800,500)" opacity="1"><g opacity="1" transform="matrix(1,0,0,1,442,30)"><path style="display: block;" fill="rgb(0,0,0)" fill-opacity="1" d="M0 0"></path><path stroke-linecap="round" stroke-linejoin="round" fill-opacity="0" style="display: block;" stroke="#81C0D3" stroke-opacity="1" stroke-width="20px" d="M0 0"></path></g></g></g><g clip-path="url(#cp_gu8FUoaR)" style="display: block;" transform="matrix(1,0,0,1,160,-26)" opacity="1"><g style="user-select: none; display: block;" transform="matrix(1,0,0,1,800,500)" opacity="1"><g opacity="1" transform="matrix(1,0,0,1,442,30)"><path style="display: block;" fill="rgb(0,0,0)" fill-opacity="1" d="M0 0"></path><path stroke-linecap="round" stroke-linejoin="round" fill-opacity="0" style="display: block;" stroke="#81C0D3" stroke-opacity="1" stroke-width="20px" d="M0 0"></path></g></g></g><g clip-path="url(#cp_IyZVEFwp)" style="display: block;" transform="matrix(1,0,0,1,0,-26)" opacity="1"><g style="user-select: none; display: block;" transform="matrix(1,0,0,1,800,500)" opacity="1"><g opacity="1" transform="matrix(1,0,0,1,442,30)"><path style="display: block;" fill="rgb(0,0,0)" fill-opacity="1" d="M0 0"></path><path stroke-linecap="round" stroke-linejoin="round" fill-opacity="0" style="display: block;" stroke="#81C0D3" stroke-opacity="1" stroke-width="20px" d="M0 0"></path></g></g></g><g clip-path="url(#cp_J3dJYj2F)" style="display: block;" transform="matrix(1,0,0,1,-160,-26)" opacity="1"><g style="user-select: none; display: block;" transform="matrix(1,0,0,1,800,500)" opacity="1"><g opacity="1" transform="matrix(1,0,0,1,442,30)"><path style="display: block;" fill="rgb(0,0,0)" fill-opacity="1" d="M0 0"></path><path stroke-linecap="round" stroke-linejoin="round" fill-opacity="0" style="display: block;" stroke="#81C0D3" stroke-opacity="1" stroke-width="20px" d="M0 0"></path></g></g></g><g clip-path="url(#cp_ZXicC2wH)" style="display: block;" transform="matrix(1,0,0,1,-320,-26)" opacity="1"><g style="user-select: none; display: block;" transform="matrix(1,0,0,1,800,500)" opacity="1"><g opacity="1" transform="matrix(1,0,0,1,442,30)"><path style="display: block;" fill="rgb(0,0,0)" fill-opacity="1" d="M0 0"></path><path stroke-linecap="round" stroke-linejoin="round" fill-opacity="0" style="display: block;" stroke="#81C0D3" stroke-opacity="1" stroke-width="20px" d="M0 0"></path></g></g></g></g><g clip-path="url(#cp_Z84bicCy)" transform="matrix(1,0,0,1,0,-26)" opacity="1"><g transform="matrix(1,0,0,1,800,500)" opacity="1" style="user-select: none;"><g opacity="1" transform="matrix(1,0,0,1,442,30)"><path fill="rgb(0,0,0)" fill-opacity="1" d="M0 0"></path><path stroke-linecap="round" stroke-linejoin="round" fill-opacity="0" stroke="#81C0D3" stroke-opacity="1" stroke-width="20px" d="M0 0"></path></g></g></g></g></svg>