<svg xmlns="http://www.w3.org/2000/svg" xmlns:xlink="http://www.w3.org/1999/xlink" fill="none" version="1.1" width="35.612815856933594" height="33.63471603393555" viewBox="0 0 35.612815856933594 33.63471603393555"><g><path d="M11.9188,33.6347C13.3816,33.6347,14.5675,32.3798,14.5675,30.8318C14.5675,29.2838,13.3816,28.0289,11.9188,28.0289C10.456,28.0289,9.27017,29.2838,9.27017,30.8318C9.27017,32.3798,10.456,33.6347,11.9188,33.6347ZM30.4593,33.6347C31.9221,33.6347,33.108,32.3798,33.108,30.8318C33.108,29.2838,31.9221,28.0289,30.4593,28.0289C28.9965,28.0289,27.8107,29.2838,27.8107,30.8318C27.8107,32.3798,28.9965,33.6347,30.4593,33.6347ZM35.1607,4.97338C34.9747,4.73255,34.7403,4.53859,34.4745,4.40556C34.2088,4.27254,33.9184,4.2038,33.6245,4.20434C33.6245,4.20434,8.43344,4.20434,8.43344,4.20434C8.43344,4.20434,7.92606,1.15795,7.92606,1.15795C7.87196,0.833448,7.71154,0.5395,7.47298,0.327735C7.23442,0.11597,6.93298,-0.0000692327,6.6216,3.09897e-8C6.6216,3.09897e-8,1.32432,3.09897e-8,1.32432,3.09897e-8C0.973089,3.09897e-8,0.636243,0.147652,0.387884,0.410474C0.139526,0.673297,1.17623e-15,1.02976,0,1.40145C5.88117e-16,1.77313,0.139526,2.1296,0.387884,2.39242C0.636243,2.65524,0.973089,2.80289,1.32432,2.80289C1.32432,2.80289,5.51083,2.80289,5.51083,2.80289C5.51083,2.80289,9.29011,25.4695,9.29011,25.4695C9.34421,25.794,9.50463,26.088,9.74319,26.2997C9.98175,26.5115,10.2832,26.6275,10.5946,26.6275C10.5946,26.6275,31.7837,26.6275,31.7837,26.6275C32.1349,26.6275,32.4718,26.4798,32.7201,26.217C32.9685,25.9542,33.108,25.5977,33.108,25.226C33.108,24.8543,32.9685,24.4979,32.7201,24.2351C32.4718,23.9722,32.1349,23.8246,31.7837,23.8246C31.7837,23.8246,11.7053,23.8246,11.7053,23.8246C11.7053,23.8246,11.2385,21.0217,11.2385,21.0217C11.2385,21.0217,31.2407,21.0217,31.2407,21.0217C31.7,21.0211,32.145,20.8526,32.5003,20.5447C32.8557,20.2368,33.0996,19.8084,33.1908,19.3321C33.1908,19.3321,35.5746,6.71906,35.5746,6.71906C35.632,6.41381,35.6247,6.09887,35.5531,5.79698C35.4815,5.49509,35.3475,5.21379,35.1607,4.97338Z" fill="#57B15E" fill-opacity="1"/></g></svg>