<?xml version="1.0" encoding="UTF-8" standalone="no"?>
<svg
   width="1366"
   height="75"
   viewBox="0 0 1366 75"
   fill="none"
   version="1.1"
   id="svg4"
   sodipodi:docname="green.svg"
   inkscape:version="1.3 (0e150ed6c4, 2023-07-21)"
   xmlns:inkscape="http://www.inkscape.org/namespaces/inkscape"
   xmlns:sodipodi="http://sodipodi.sourceforge.net/DTD/sodipodi-0.dtd"
   xmlns="http://www.w3.org/2000/svg"
   xmlns:svg="http://www.w3.org/2000/svg">
  <defs
     id="defs4" />
  <sodipodi:namedview
     id="namedview4"
     pagecolor="#505050"
     bordercolor="#ffffff"
     borderopacity="1"
     inkscape:showpageshadow="0"
     inkscape:pageopacity="0"
     inkscape:pagecheckerboard="1"
     inkscape:deskcolor="#505050"
     showgrid="false"
     inkscape:zoom="1.7320644"
     inkscape:cx="123.26331"
     inkscape:cy="-75.920964"
     inkscape:window-width="3440"
     inkscape:window-height="1310"
     inkscape:window-x="-9"
     inkscape:window-y="-9"
     inkscape:window-maximized="1"
     inkscape:current-layer="svg4" />
  <path
     d="m 0,36.455955 c 38.6429,-1.5848 82.7817,-2.5215 134.914,-2.5215 341.5,0 341.5,40.1466 683,40.1466 289.366,0 333.586,-28.814 548.086,-37.611 V 0 H 0 Z"
     fill="#abd18d"
     fill-opacity="0.3"
     id="path2" />
  <path
     d="m 0,17.122155 c 46.38,-4.0076 100.913,-6.515 169.064,-6.515 341.5,0 341.5,62.8541 683,62.8541 273.336,0 327.926,-40.2593 513.936,-56.3461 V 0 H 0 Z"
     fill="#abd18d"
     fill-opacity="0.5"
     id="path3" />
  <path
     d="m 0,0 v 2.394715 c 30.0947,-1.26779 63.3909,-1.97916 100.764,-1.97916 341.5,0 341.5,59.3747 683,59.3747 304.146,0 337.416,-47.0842 582.236,-57.39554 V 0 Z"
     fill="#abd18d"
     id="path4" />
</svg>
