<?xml version="1.0" encoding="UTF-8" standalone="no"?>
<svg
   fill="none"
   version="1.1"
   width="47"
   height="47"
   viewBox="0 0 47 47"
   id="svg1"
   sodipodi:docname="instagram_black.svg"
   inkscape:version="1.3 (0e150ed6c4, 2023-07-21)"
   xmlns:inkscape="http://www.inkscape.org/namespaces/inkscape"
   xmlns:sodipodi="http://sodipodi.sourceforge.net/DTD/sodipodi-0.dtd"
   xmlns="http://www.w3.org/2000/svg"
   xmlns:svg="http://www.w3.org/2000/svg">
  <defs
     id="defs1" />
  <sodipodi:namedview
     id="namedview1"
     pagecolor="#505050"
     bordercolor="#ffffff"
     borderopacity="1"
     inkscape:showpageshadow="0"
     inkscape:pageopacity="0"
     inkscape:pagecheckerboard="1"
     inkscape:deskcolor="#505050"
     showgrid="false"
     inkscape:zoom="8"
     inkscape:cx="13.25"
     inkscape:cy="41.8125"
     inkscape:window-width="3440"
     inkscape:window-height="1310"
     inkscape:window-x="-9"
     inkscape:window-y="-9"
     inkscape:window-maximized="1"
     inkscape:current-layer="svg1" />
  <g
     id="g1">
    <path
       d="m 25.9158,0.00289133 c 1.7148,-0.0065803 3.4296,0.01065427 5.1439,0.05169837 l 0.4559,0.0164494 c 0.5264,0.0187994 1.0457,0.0422989 1.6731,0.0704979 2.5003,0.117496 4.2063,0.512283 5.7032,1.092713 1.5509,0.59688 2.8574,1.40525 4.1639,2.71181 1.1947,1.17403 2.1192,2.59418 2.7095,4.16171 0.5804,1.49689 0.9752,3.20533 1.0927,5.70563 0.0282,0.625 0.0516,1.1467 0.0704,1.6731 l 0.0141,0.4559 c 0.0418,1.7135 0.0598,3.4276 0.0541,5.1416 l 0.0023,1.7531 v 3.0784 c 0.0058,1.7148 -0.0122,3.4296 -0.054,5.1439 l -0.0141,0.4559 c -0.0188,0.5264 -0.0423,1.0457 -0.0705,1.6732 -0.1175,2.5003 -0.517,4.2063 -1.095,5.7032 -0.5883,1.5692 -1.5131,2.9905 -2.7095,4.1641 -1.175,1.1945 -2.5958,2.119 -4.1639,2.7094 -1.4969,0.5805 -3.2029,0.9753 -5.7032,1.0927 -0.6274,0.0282 -1.1467,0.0517 -1.6731,0.0705 l -0.4559,0.0141 c -1.7143,0.0418 -3.4291,0.0598 -5.1439,0.0541 l -1.753,0.0023 h -3.076 c -1.7148,0.0058 -3.4296,-0.0122 -5.1439,-0.054 L 15.4871,46.9308 C 14.9292,46.9106 14.3715,46.8871 13.8139,46.8603 11.3137,46.7428 9.60766,46.3433 8.10844,45.7652 6.54033,45.1762 5.11995,44.2515 3.9468,43.0558 2.75082,41.8815 1.82539,40.4604 1.23504,38.8917 0.654622,37.3948 0.259842,35.6888 0.142348,33.1885 0.116178,32.6309 0.0926787,32.0731 0.0718522,31.5153 L 0.0601031,31.0594 C 0.0167797,29.3451 -0.00280469,27.6303 0.00135588,25.9155 V 21.084 C -0.00520255,19.37 0.0120317,17.656 0.0530534,15.9424 L 0.0695025,15.4865 C 0.0883015,14.9601 0.1118,14.4384 0.139999,13.8134 0.257493,11.3107 0.652272,9.60701 1.23269,8.10777 1.82339,6.53948 2.75063,5.11971 3.94915,3.94841 5.12149,2.75172 6.54098,1.82543 8.10844,1.23425 9.60766,0.65382 11.3113,0.259033 13.8139,0.141537 L 15.4871,0.0710391 15.9429,0.0592898 C 17.6564,0.0159874 19.3704,-0.00359738 21.0845,5.41581e-4 Z M 25.9153,1.00289 21.0821,1.00054 C 19.377167,0.996422 17.6727,1.0158953 15.9687,1.05896 L 15.5292,1.07015 13.8608,1.14044 C 11.781867,1.2380467 9.9820433,1.5812033 8.46133,2.16991 7.0128167,2.71623 5.7417367,3.5474567 4.64809,4.66359 3.5407833,5.7457567 2.71317,7.0141567 2.16525,8.46879 1.5786233,9.9840633 1.2365733,11.7797 1.1391,13.8557 l -0.06786,1.6008 -0.00239,0.0661 -0.01608,0.4437 c -0.040804,1.7044 -0.0579407,3.4103 -0.05141,5.1177 l -1e-5,4.8339 c -0.004137,1.705667 0.015337,3.410933 0.05842,5.1158 l 0.0113,0.442 0.03245,0.8177 0.03773,0.8481 c 0.097753,2.080267 0.44099,3.8796 1.02971,5.398 0.5456133,1.449867 1.3754967,2.721833 2.48965,3.8159 1.0840067,1.104867 2.3532067,1.930467 3.8076,2.4768 1.52746,0.589 3.32459,0.932033 5.39139,1.0291 l 0.6619,0.0303 0.9965,0.0397 0.4493,0.0139 c 1.705133,0.0416 3.411633,0.0595 5.1195,0.0537 h 3.0747 l 1.7577,-0.0023 c 1.7056,0.0057 3.4088,-0.01213 5.1096,-0.0536 l 0.4505,-0.0139 0.0881,-0.0032 1.5744,-0.0668 c 2.0802,-0.0978 3.879433,-0.441033 5.3977,-1.0297 1.449467,-0.5458 2.7215,-1.374967 3.8161,-2.4875 1.105333,-1.084333 1.930933,-2.354467 2.4768,-3.8104 0.5888,-1.524667 0.931733,-3.319833 1.0288,-5.3855 l 0.0668,-1.5726 0.0033,-0.089 0.0139,-0.4494 c 0.0416,-1.705133 0.0595,-3.411633 0.0537,-5.1195 v -3.0771 l -0.0023,-1.7577 c 0.0057,-1.7048 -0.0122,-3.407267 -0.0536,-5.1074 L 45.9291,15.5226 45.927,15.4627 45.8591,13.8603 C 45.761233,11.7783 45.418,9.97825 44.8294,8.46015 44.283867,7.01135 43.456967,5.7423533 42.3487,4.65316 41.246567,3.55098 39.973767,2.72213 38.5303,2.16661 37.018167,1.58025 35.2235,1.23826 33.1463,1.14064 L 31.5736,1.0738 31.4795,1.07039 31.0358,1.0543 C 29.330667,1.0134773 27.6253,0.99633733 25.9197,1.00288 Z m 8.597167,6.4680667 C 34.187933,7.5634833 33.614,7.91559 33.1152,8.43475 c -0.732067,0.76196 -1.0981,1.671277 -1.0981,2.72795 0,1.0566 0.366033,1.9659 1.0981,2.7279 0.732067,0.761933 1.626,1.164033 2.6818,1.2063 l 0.02,8e-4 h 0.02 c 1.087267,0 2.015333,-0.3844 2.7842,-1.1532 0.7688,-0.768867 1.1532,-1.696933 1.1532,-2.7842 0,-1.08728 -0.384433,-2.01533 -1.1533,-2.78415 -0.7688,-0.7688267 -1.700108,-1.2375653 -2.7841,-1.15324 -0.430221,0.033468 -0.751458,0.04593 -1.324533,0.2480467 z M 35.837,8.22761 c -0.7581,0.03034 -1.475,0.35284 -2.0007,0.89995 -0.5256,0.54711 -0.8192,1.27644 -0.8192,2.03514 0,0.7587 0.2936,1.4879 0.8192,2.0351 0.5257,0.5471 1.2426,0.8696 2.0007,0.8999 0.779,0 1.5262,-0.3095 2.077,-0.8603 0.5509,-0.5509 0.8604,-1.298 0.8604,-2.0771 0,-0.779 -0.3095,-1.52617 -0.8604,-2.07704 C 37.6066,8.77584 37.2381,8.54361 36.837,8.39837 36.5194,8.28336 36.1813,8.22291 35.837,8.22291 Z M 23.5072,10.7525 c 1.688467,8.67e-4 3.312333,0.323933 4.8716,0.9692 1.562467,0.646533 2.9413,1.567433 4.1365,2.7627 1.195533,1.195533 2.1168,2.5743 2.7638,4.1363 0.646933,1.562 0.9704,3.188333 0.9704,4.879 0,1.690733 -0.323467,3.3171 -0.9704,4.8791 -0.647,1.562 -1.568267,2.940767 -2.7638,4.1363 -1.195467,1.195467 -2.5742,2.1167 -4.1362,2.7637 -1.561933,0.647 -3.183533,0.970467 -4.8648,0.9704 -1.706133,0.02413 -3.350833,-0.2819 -4.9341,-0.9181 -1.583267,-0.636267 -2.9824,-1.553367 -4.1974,-2.7513 -1.215067,-1.198 -2.151867,-2.584067 -2.8104,-4.1582 -0.658533,-1.574133 -0.9878,-3.214367 -0.9878,-4.9207 0,-1.706333 0.329267,-3.346567 0.9878,-4.9207 0.658533,-1.574067 1.595333,-2.9601 2.8104,-4.1581 1.215,-1.198 2.614133,-2.115133 4.1974,-2.7514 1.581067,-0.635333 3.2234,-0.9414 4.927,-0.9182 z m -0.0071,1 c -1.5567,-0.022 -3.1024,0.2656 -4.547,0.8461 -1.4447,0.5806 -2.7596,1.4424 -3.8682,2.5356 -1.1087,1.0931 -1.9891,2.3957 -2.59,3.832 -0.6009,1.4363 -0.9103,2.9778 -0.9103,4.5347 0,1.557 0.3094,3.0984 0.9103,4.5347 0.6009,1.4364 1.4813,2.739 2.59,3.8321 1.1086,1.0931 2.4235,1.955 3.8682,2.5355 1.4446,0.5805 2.9903,0.8682 4.547,0.8461 3.1162,0 6.1047,-1.2379 8.3081,-3.4413 2.2035,-2.2035 3.4413,-5.1921 3.4413,-8.3083 0,-3.1161 -1.2378,-6.1047 -3.4413,-8.3082 -2.2034,-2.2035 -5.1919,-3.439 -8.3081,-3.439 z m -4.9824,6.7623 c 0.9386,-0.9387 2.1148,-1.5853 3.3872,-1.8814 0.5189,-0.1208 1.0538,-0.1832 1.5952,-0.1834 h 0.0024 l -0.0024,0.0023 h 0.0024 c 0.4408,-0.008 0.8803,0.0254 1.3127,0.0992 0.4855,0.0828 0.9622,0.2164 1.4221,0.3995 0.8702,0.3464 1.6626,0.8627 2.331,1.5188 0.6684,0.6561 1.1994,1.4389 1.5619,2.3025 0.3625,0.8636 0.5493,1.7908 0.5495,2.7274 10e-5,0.9366 -0.1864,1.8639 -0.5486,2.7276 -0.3622,0.8638 -0.8929,1.6467 -1.5611,2.303 -0.6682,0.6563 -1.4605,1.1729 -2.3305,1.5196 -0.8701,0.3467 -1.8006,0.5165 -2.737,0.4996 -1.8697,0 -3.6628,-0.7427 -4.9848,-2.0648 -1.3221,-1.3221 -2.0648,-3.1152 -2.0648,-4.985 0,-1.8697 0.7427,-3.6628 2.0648,-4.9849 z m 0.7071,0.7071 c 1.097133,-1.0972 2.405333,-1.684833 3.9246,-1.7629 l 0.3692,-0.0068 c 0.811667,-0.015 1.5946,0.127633 2.3488,0.4279 0.754267,0.300267 1.421067,0.734733 2.0004,1.3034 0.579333,0.568667 1.0261,1.227267 1.3403,1.9758 0.314267,0.748533 0.471467,1.528733 0.4716,2.3406 1.33e-4,0.8118 -0.1568,1.592033 -0.4708,2.3407 -0.313933,0.748667 -0.7605,1.407433 -1.3397,1.9763 -0.579133,0.568867 -1.245767,1.003567 -1.9999,1.3041 -0.754133,0.300467 -1.537033,0.443367 -2.3487,0.4287 -1.6826,-1.33e-4 -3.114533,-0.590833 -4.2958,-1.7721 -1.181267,-1.181333 -1.7719,-2.6073 -1.7719,-4.2779 0,-1.6706 0.590633,-3.096533 1.7719,-4.2778 z"
       fill-rule="evenodd"
       fill="#57b15e"
       fill-opacity="1"
       id="path1"
       sodipodi:nodetypes="ccccccccccccccccccccccccccccccccccccccccccccccccccccccccccccccccccccccccccccccccccccccccccccccccccccccccscscscscscccsccsscsccccccscscccssscccccccssccccssccccscccccssccscccscccccscscccccsc"
       style="fill:#000000;fill-opacity:1" />
  </g>
</svg>
