<svg xmlns="http://www.w3.org/2000/svg" xmlns:xlink="http://www.w3.org/1999/xlink" fill="none" version="1.1" width="273" height="273" viewBox="0 0 273 273"><g><path d="M111.032,1.4822C186.014,-11.1443,258.519,58.9257,271.079,134.573C283.64,210.208,233.287,258.927,158.217,271.587C83.1457,284.247,14.6561,209.691,2.05136,134.055C-10.5534,58.4197,36.0508,14.1087,111.032,1.4822ZM214.503,155.677C220.262,153.078,225.118,148.802,228.446,143.399L228.458,143.399C231.516,138.44,233.169,132.732,233.238,126.894C233.306,121.055,231.788,115.309,228.847,110.279C225.905,105.249,221.654,101.126,216.554,98.3587C211.453,95.5911,205.698,94.284,199.913,94.5791C194.869,94.84,189.961,96.3111,185.595,98.87C181.23,101.429,177.534,105.002,174.815,109.291C172.096,113.58,170.432,118.462,169.963,123.53C169.493,128.599,170.231,133.706,172.115,138.429L172.115,138.508L180.704,157.431C180.833,157.715,180.9,158.023,180.898,158.335C180.897,158.648,180.828,158.956,180.696,159.238C180.564,159.521,180.373,159.771,180.136,159.972C179.898,160.172,179.62,160.318,179.321,160.399C153.387,167.482,117.089,172.317,84.5066,158.825C84.0437,158.633,83.6619,158.284,83.4276,157.839C83.1933,157.393,83.1212,156.879,83.2238,156.385L91.5452,115.695C91.6227,115.31,91.8028,114.954,92.0662,114.664C92.3296,114.375,92.6662,114.164,93.0399,114.053C101.118,111.578,109.478,110.157,117.915,109.825C118.467,109.8,119.007,109.991,119.423,110.357C119.838,110.724,120.097,111.238,120.146,111.793C121.228,124.476,122.577,138.913,123.693,147.548C124.018,150.277,124.955,152.897,126.434,155.207C127.912,157.517,129.893,159.458,132.226,160.883C136.708,163.539,141.888,164.755,147.073,164.368C150.847,164.171,154.515,163.044,157.756,161.086C160.997,159.128,163.712,156.399,165.663,153.137C167.614,149.875,168.741,146.181,168.946,142.378C169.151,138.575,168.428,134.779,166.839,131.323C160.448,116.808,149.661,107.622,134.792,104.012C132.702,103.52,130.587,103.144,128.456,102.888C127.965,102.828,127.51,102.6,127.167,102.241C126.824,101.883,126.613,101.417,126.571,100.92C126.325,98.0084,126.114,95.2987,125.924,93.0499C125.786,91.1145,125.258,89.2277,124.372,87.5051C123.486,85.7825,122.261,84.2604,120.77,83.0319C118.629,81.368,116.182,80.1461,113.572,79.4361C110.961,78.7262,108.237,78.542,105.555,78.8943C101.597,79.2288,97.8435,80.8076,94.8234,83.408C91.8033,86.0083,89.6695,89.499,88.7231,93.3873L88.7231,93.4884L85.7894,107.532C85.7115,107.897,85.5411,108.236,85.2949,108.516C85.0486,108.796,84.7348,109.007,84.3839,109.128L83.4358,109.466C68.3881,114.84,52.7047,123.374,42.5093,131.705L41.2823,132.695C41.0597,132.879,40.8759,133.107,40.7421,133.364C40.6082,133.621,40.5269,133.902,40.503,134.192C40.4791,134.481,40.513,134.772,40.6028,135.048C40.6926,135.324,40.8364,135.579,41.0257,135.798L42.0631,136.99C50.8162,147.087,61.3396,155.472,73.1066,161.726C73.5226,161.937,73.8577,162.28,74.0595,162.704C74.2613,163.127,74.3185,163.605,74.222,164.064L70.251,183.392C70.1886,183.699,70.1932,184.016,70.2645,184.321C70.3358,184.625,70.472,184.911,70.6637,185.157C73.1065,188.328,76.9772,186.934,77.5684,184.033L80.7921,168.213C80.8547,167.906,80.9836,167.615,81.1696,167.363C81.3556,167.111,81.5943,166.903,81.8687,166.754C82.1432,166.605,82.4467,166.518,82.758,166.501C83.0692,166.483,83.3805,166.534,83.67,166.65C85.0643,167.201,86.481,167.73,87.8976,168.225C102.834,173.442,119.555,175.679,137.603,174.892C153.001,174.085,168.257,171.497,183.069,167.179C183.553,167.035,184.073,167.069,184.534,167.275C184.996,167.481,185.37,167.845,185.59,168.303L193.086,184.82C193.379,185.465,193.851,186.011,194.444,186.393C195.038,186.774,195.729,186.973,196.432,186.968C198.039,186.968,199.734,185.888,200.47,183.358L192.885,166.617C192.76,166.343,192.694,166.045,192.69,165.743C192.687,165.442,192.747,165.143,192.866,164.866C192.985,164.589,193.16,164.34,193.381,164.136C193.601,163.933,193.862,163.778,194.146,163.682C203.103,160.646,210.153,157.656,214.503,155.677ZM96.7879,105.429C103.44,103.733,110.246,102.724,117.101,102.416C117.383,102.406,117.66,102.339,117.917,102.221C118.174,102.102,118.405,101.933,118.597,101.724C118.788,101.515,118.937,101.27,119.035,101.003C119.132,100.736,119.176,100.452,119.164,100.167C118.963,97.7723,118.785,95.5798,118.629,93.6908C118.571,92.7296,118.316,91.7911,117.878,90.9353C117.44,90.0795,116.829,89.3254,116.085,88.7212C113.258,86.6398,109.737,85.7487,106.269,86.2364C103.82,86.4228,101.491,87.3807,99.611,88.9748C97.7313,90.5688,96.3964,92.7181,95.7951,95.1188L95.7951,95.2762L94.2223,102.933C94.159,103.283,94.1824,103.643,94.2905,103.982C94.3986,104.32,94.588,104.627,94.8419,104.874C95.0958,105.121,95.4062,105.301,95.7458,105.398C96.0853,105.494,96.4432,105.505,96.7879,105.429ZM200.27,101.921C196.389,102.124,192.613,103.256,189.253,105.223C185.893,107.191,183.047,109.937,180.95,113.234C178.854,116.531,177.567,120.285,177.196,124.183C176.825,128.082,177.382,132.013,178.819,135.652L188.011,155.89C188.233,156.366,188.62,156.743,189.098,156.95C189.577,157.157,190.115,157.18,190.61,157.015C197.712,154.702,204.686,152.007,211.502,148.942C223.505,143.511,229.439,129.49,223.773,116.032C221.666,111.611,218.312,107.914,214.132,105.404C209.952,102.895,205.13,101.683,200.27,101.921ZM217.916,129.502C217.567,130.002,217.133,130.436,216.634,130.783C203.806,139.778,189.695,125.566,198.63,112.625C198.978,112.128,199.408,111.694,199.902,111.343C212.752,102.348,226.851,116.56,217.928,129.502L217.916,129.502ZM146.727,157.116C149.311,156.979,151.822,156.206,154.04,154.864C156.258,153.522,158.116,151.652,159.45,149.418C160.785,147.184,161.555,144.654,161.694,142.05C161.833,139.446,161.336,136.848,160.247,134.483L160.247,134.415C154.826,122.047,145.746,114.3,133.152,111.253C132.17,111.006,131.167,110.804,130.163,110.624C129.845,110.567,129.518,110.584,129.207,110.673C128.896,110.761,128.61,110.92,128.368,111.136C128.127,111.353,127.937,111.621,127.813,111.922C127.689,112.222,127.634,112.547,127.653,112.872C128.701,125.027,129.951,138.395,130.999,146.502C131.936,154.361,139.566,157.509,146.727,157.116ZM208.814,115.908C207.753,115.795,206.683,116.017,205.751,116.542C204.82,117.067,204.073,117.87,203.613,118.84C203.153,119.811,203.002,120.901,203.182,121.962C203.361,123.022,203.862,124,204.616,124.762C205.37,125.523,206.339,126.031,207.391,126.215C208.442,126.398,209.524,126.249,210.488,125.788C211.452,125.326,212.251,124.575,212.774,123.637C213.297,122.7,213.519,121.622,213.41,120.552C213.286,119.365,212.763,118.256,211.927,117.411C211.09,116.566,209.992,116.035,208.814,115.908ZM80.134,118.562C70.3214,122.516,60.9697,127.546,52.2473,133.561C51.9901,133.741,51.7754,133.976,51.6186,134.249C51.4618,134.522,51.3667,134.827,51.34,135.142C51.3134,135.456,51.3559,135.773,51.4645,136.069C51.5732,136.365,51.7452,136.633,51.9685,136.855C58.3732,143.377,65.6403,148.976,73.5639,153.495C73.8579,153.662,74.1867,153.755,74.5235,153.769C74.8603,153.783,75.1956,153.717,75.5022,153.576C75.8087,153.434,76.0778,153.222,76.2876,152.956C76.4974,152.69,76.642,152.378,76.7095,152.045L83.0677,120.99C83.1477,120.604,83.1213,120.204,82.9914,119.832C82.8614,119.46,82.6329,119.131,82.3306,118.88C82.0282,118.63,81.6637,118.468,81.2764,118.412C80.8892,118.356,80.4941,118.407,80.134,118.562Z" fill-rule="evenodd" fill="#FFFFFF" fill-opacity="1"/></g></svg>