<?xml version="1.0" encoding="UTF-8" standalone="no"?>
<svg
   fill="none"
   version="1.1"
   width="41.125003814697266"
   height="47.000003814697266"
   viewBox="0 0 41.125003814697266 47.000003814697266"
   id="svg1"
   sodipodi:docname="tiktok_black.svg"
   inkscape:version="1.3 (0e150ed6c4, 2023-07-21)"
   xmlns:inkscape="http://www.inkscape.org/namespaces/inkscape"
   xmlns:sodipodi="http://sodipodi.sourceforge.net/DTD/sodipodi-0.dtd"
   xmlns="http://www.w3.org/2000/svg"
   xmlns:svg="http://www.w3.org/2000/svg">
  <defs
     id="defs1" />
  <sodipodi:namedview
     id="namedview1"
     pagecolor="#505050"
     bordercolor="#ffffff"
     borderopacity="1"
     inkscape:showpageshadow="0"
     inkscape:pageopacity="0"
     inkscape:pagecheckerboard="1"
     inkscape:deskcolor="#505050"
     showgrid="false"
     inkscape:zoom="23.595743"
     inkscape:cx="20.554555"
     inkscape:cy="23.500002"
     inkscape:window-width="1718"
     inkscape:window-height="1300"
     inkscape:window-x="1704"
     inkscape:window-y="0"
     inkscape:window-maximized="1"
     inkscape:current-layer="svg1" />
  <g
     id="g1"
     style="fill:#000000;fill-opacity:1">
    <path
       d="M40.125,17.5944C36.0509,17.3434,32.8272,15.5724,30.375,13.2663C30.0261,12.9382,29.6929,12.5992,29.375,12.2523L29.375,32.3125C29.375,35.2174,28.5136,38.0571,26.8997,40.4724C25.2858,42.8878,22.992,44.7703,20.3082,45.882C17.6244,46.9936,14.6712,47.2845,11.8221,46.7178C8.97302,46.1511,6.35596,44.7522,4.30188,42.6981C2.24779,40.644,0.848943,38.027,0.282223,35.1779C-0.284498,32.3288,0.00636386,29.3756,1.11803,26.6918C2.22969,24.008,4.11222,21.7142,6.52757,20.1003C8.66489,18.6722,11.1345,17.8333,13.6875,17.6591C14.0196,17.6364,14.3531,17.625,14.6875,17.625L14.6875,23.5C12.9446,23.5,11.2408,24.0168,9.79154,24.9852C8.34233,25.9535,7.21281,27.3298,6.54582,28.9401C5.87882,30.5504,5.7043,32.3223,6.04434,34.0317C6.38437,35.7412,7.22368,37.3114,8.45613,38.5439C9.68858,39.7763,11.2588,40.6156,12.9683,40.9557C14.6777,41.2957,16.4496,41.1212,18.0599,40.4542C19.6702,39.7872,21.0465,38.6577,22.0148,37.2085C22.9832,35.7593,23.5,34.0554,23.5,32.3125L23.5,0L29.3163,0C29.7393,2.10031,30.9025,4.74994,32.9441,7.379C34.9416,9.95519,37.5912,11.75,41.125,11.75L41.125,17.625C40.7861,17.625,40.4528,17.6146,40.125,17.5944ZM7.08314,20.9318Q10.1154,18.9057,13.6875,18.6591L13.6875,22.548Q11.2891,22.7818,9.23597,24.1537Q6.76103,25.8074,5.62194,28.5574Q4.48285,31.3074,5.06355,34.2268Q5.64425,37.1462,7.74902,39.251Q9.85378,41.3558,12.7732,41.9365Q15.6926,42.5172,18.4426,41.3781Q21.1926,40.239,22.8463,37.764Q24.5,35.2891,24.5,32.3125L24.5,1L28.5215,1Q29.4319,4.48659,32.1542,7.99233Q35.4889,12.293,40.125,12.7061L40.125,16.5934Q34.3717,16.2255,30.1123,11.5768L28.375,9.68066L28.375,32.3125Q28.375,36.4646,26.0682,39.9169Q23.7615,43.3692,19.9255,44.9581Q16.0895,46.547,12.0172,45.737Q7.94492,44.927,5.00898,41.991Q2.07304,39.0551,1.26301,34.9828Q0.452982,30.9105,2.04191,27.0745Q3.63083,23.2385,7.08314,20.9318Z"
       fill-rule="evenodd"
       fill="#57B15E"
       fill-opacity="1"
       id="path1"
       style="fill:#000000;fill-opacity:1" />
  </g>
</svg>
